<svg xmlns="http://www.w3.org/2000/svg" xmlns:xlink="http://www.w3.org/1999/xlink" viewBox="0 0 256 256" width="256" height="256" fill="#263238">
  <path d="M0 0h256v256H0z" fill="none"/>

  <rect width="244" height="244" x="6" y="6" ry="20" fill="#fff"/>

  <path
    id="a"
    d="
      M85 128c0-22-5-32-16.768-43.237-3.036-2.9 3.331-10.555 6.718-7.829C80 81 100 96 100 128z
      M115 128c0-37-14.9-54.981-26.667-66.218-3.036-2.9 3.33-10.555 6.717-7.829C100.1 58.02 130 81 130 128z
      M178.544 18.235c-16.086 8.662-43.31 29.699-46.669 33.765-3.358 4.066 2.829 9.9 6.01 7.955 3.183-1.945 42.25-29.169 47.73-32.174 5.48-3.005 1.061-12.904-7.07-9.546z
      M209.127 84.35c-17.324 3.359-53.387 10.783-58.69 13.258-4.779 2.23-1.59 10.436 3.182 9.546 5.412-1.009 52.874-10.49 59.043-11.49 6.541-1.061 6.01-12.375-3.535-11.314z
    "
    transform="translate(-14)"
  />

  <use xlink:href="#a" transform="matrix(1 0 0 -1 0 256)" width="100%" height="100%"/>
</svg>
