<?xml version="1.0" standalone="no"?>
<!DOCTYPE svg PUBLIC "-//W3C//DTD SVG 20010904//EN"
 "http://www.w3.org/TR/2001/REC-SVG-20010904/DTD/svg10.dtd">
<svg version="1.0" xmlns="http://www.w3.org/2000/svg"
 width="700.000000pt" height="700.000000pt" viewBox="0 0 700.000000 700.000000"
 preserveAspectRatio="xMidYMid meet">
<metadata>
Created by potrace 1.11, written by Peter Selinger 2001-2013
</metadata>
<g transform="translate(0.000000,700.000000) scale(0.100000,-0.100000)"
fill="#000000" stroke="none">
<path d="M4505 6501 c-219 -100 -1012 -665 -1236 -880 l-72 -69 5 -51 c6 -62
40 -110 98 -136 33 -15 47 -17 69 -8 16 5 253 163 527 350 275 187 567 384
649 438 83 53 162 109 177 123 51 48 47 133 -11 196 -52 57 -132 71 -206 37z"/>
<path d="M2115 5521 c-58 -36 -105 -108 -105 -162 0 -13 29 -51 74 -98 250
-258 409 -501 517 -788 213 -565 213 -1381 0 -1946 -108 -287 -267 -530 -517
-788 -45 -47 -74 -85 -74 -98 0 -55 55 -137 112 -167 52 -27 72 -19 180 75
422 364 711 863 817 1411 38 197 46 291 46 540 0 249 -8 343 -46 540 -106 548
-395 1047 -817 1411 -111 96 -132 104 -187 70z"/>
<path d="M1565 4891 c-58 -36 -105 -108 -105 -162 0 -13 29 -51 73 -98 308
-321 407 -596 407 -1131 0 -535 -99 -810 -407 -1131 -78 -82 -83 -96 -57 -157
27 -66 95 -122 148 -122 33 0 111 62 241 194 118 120 195 221 271 355 285 508
285 1214 0 1722 -76 134 -153 235 -271 355 -187 190 -234 217 -300 175z"/>
<path d="M5345 4692 c-112 -11 -1238 -252 -1445 -308 -194 -54 -230 -79 -230
-160 0 -25 7 -58 15 -73 21 -42 72 -81 105 -81 16 0 187 31 382 70 194 38 565
110 823 160 324 62 478 96 495 108 40 30 62 80 57 135 -8 98 -93 160 -202 149z"/>
<path d="M3730 2904 c-42 -36 -60 -74 -60 -128 0 -99 43 -119 485 -221 502
-116 1143 -246 1216 -246 65 -1 105 17 142 61 59 69 41 190 -34 230 -10 6
-229 51 -486 101 -258 49 -627 121 -821 159 -195 39 -366 70 -382 70 -16 0
-42 -11 -60 -26z"/>
<path d="M3288 1630 c-50 -27 -80 -73 -86 -132 l-5 -50 72 -69 c196 -189 852
-663 1157 -838 133 -76 202 -80 273 -16 68 62 79 155 23 207 -15 14 -99 73
-188 130 -88 58 -367 246 -620 418 -541 369 -542 370 -568 370 -12 -1 -38 -10
-58 -20z"/>
</g>
</svg>
